<?xml version="1.0" encoding="utf-8"?>
<!-- Generator: Adobe Illustrator 19.2.1, SVG Export Plug-In . SVG Version: 6.00 Build 0)  -->
<svg version="1.1" id="layer" xmlns="http://www.w3.org/2000/svg" xmlns:xlink="http://www.w3.org/1999/xlink" x="0px" y="0px"
	 viewBox="0 0 652 652" style="enable-background:new 0 0 652 652;" xml:space="preserve">
<style type="text/css">
	.st0{fill:url(#SVGID_1_);}
	.st1{fill:#2684FF;}
	.st2{fill:#0052CC;}
</style>
<g id="Layer_2">
	<g id="Blue">
		
			<linearGradient id="SVGID_1_" gradientUnits="userSpaceOnUse" x1="53.788" y1="328.7228" x2="34.7524" y2="295.7517" gradientTransform="matrix(1 0 0 -1 0 652)">
			<stop  offset="0" style="stop-color:#0052CC"/>
			<stop  offset="0.923" style="stop-color:#2684FF"/>
		</linearGradient>
		<path class="st0" d="M43.9,317.7c-0.7-0.9-2-1.1-2.9-0.4c-0.3,0.2-0.5,0.5-0.6,0.8l-18,36.1c-0.5,1.1-0.1,2.4,1,2.9
			c0.3,0.1,0.6,0.2,1,0.2h25.1c0.8,0,1.6-0.4,1.9-1.2C56.7,344.9,53.4,327.9,43.9,317.7z"/>
		<path class="st1" d="M57.1,284.9c-9.1,14.1-10.2,31.9-2.8,47l12.1,24.2c0.4,0.7,1.1,1.2,1.9,1.2h25.1c1.2,0,2.2-1,2.2-2.2
			c0-0.3-0.1-0.7-0.2-1c0,0-33.8-67.6-34.6-69.3c-0.5-1-1.7-1.4-2.7-0.9C57.6,284.2,57.3,284.5,57.1,284.9z"/>
		<path class="st2" d="M351.7,313.9c0,8.9,4.1,16,20.3,19.2c9.7,2,11.7,3.6,11.7,6.8c0,3.1-2,5.2-8.8,5.2
			c-8.2-0.1-16.3-2.3-23.5-6.4v14.5c4.9,2.4,11.3,5.1,23.3,5.1c16.9,0,23.7-7.6,23.7-18.8 M398.3,339.5c0-10.6-5.6-15.6-21.5-19
			c-8.7-1.9-10.9-3.9-10.9-6.6c0-3.5,3.1-5,8.9-5c7,0,13.9,2.1,20.4,5.1V300c-6.3-2.9-13.1-4.3-20-4.1c-15.7,0-23.8,6.8-23.8,18"/>
		<polygon class="st2" points="569.3,296.8 569.3,357.3 582.2,357.3 582.2,311.2 587.6,323.4 605.9,357.3 622.1,357.3 622.1,296.8 
			609.2,296.8 609.2,335.9 604.3,324.5 589.6,296.8 		"/>
		<rect x="473.2" y="296.8" class="st2" width="14.1" height="60.5"/>
		<path class="st2" d="M457,339.5c0-10.6-5.6-15.6-21.5-19c-8.7-1.9-10.9-3.9-10.9-6.6c0-3.5,3.1-5,8.9-5c7,0,13.9,2.1,20.4,5.1V300
			c-6.3-2.9-13.1-4.3-20-4.1c-15.7,0-23.8,6.8-23.8,18c0,8.9,4.1,16,20.3,19.2c9.7,2,11.7,3.6,11.7,6.8c0,3.1-2,5.2-8.8,5.2
			c-8.2-0.1-16.3-2.3-23.5-6.4v14.5c4.9,2.4,11.3,5.1,23.3,5.1C450.3,358.2,457,350.7,457,339.5"/>
		<polygon class="st2" points="242.2,296.8 242.2,357.3 271.2,357.3 275.7,344.2 256.4,344.2 256.4,296.8 		"/>
		<polygon class="st2" points="185,296.8 185,309.9 200.7,309.9 200.7,357.3 214.9,357.3 214.9,309.9 231.6,309.9 231.6,296.8 		"/>
		<path class="st2" d="M164.5,296.8h-18.6l-21.1,60.5h16.1l3-10.2c7.4,2.2,15.2,2.2,22.6,0l3,10.2h16.1L164.5,296.8z M155.2,336.2
			c-2.6,0-5.2-0.4-7.8-1.1l7.8-26.4l7.8,26.4C160.4,335.9,157.8,336.2,155.2,336.2z"/>
		<path class="st2" d="M321.1,296.8h-18.6l-21.1,60.5h16.1l3-10.2c7.4,2.2,15.2,2.2,22.6,0l3,10.2h16.1L321.1,296.8z M311.8,336.2
			c-2.6,0-5.2-0.4-7.8-1.1l7.8-26.4l7.8,26.4C317,335.9,314.4,336.2,311.8,336.2z"/>
		<path class="st2" d="M538.1,296.8h-18.6l-21.1,60.5h16.1l3-10.2c7.4,2.2,15.2,2.2,22.6,0l3,10.2h16.1L538.1,296.8z M528.8,336.2
			c-2.6,0-5.2-0.4-7.8-1.1l7.8-26.4l7.8,26.4C534,335.9,531.4,336.2,528.8,336.2z"/>
	</g>
</g>
</svg>
