<svg width="56" height="56" viewBox="0 0 56 56" fill="none" xmlns="http://www.w3.org/2000/svg">
<circle cx="28" cy="28" r="28" fill="#0065FF"/>
<path fill-rule="evenodd" clip-rule="evenodd" d="M41 18.8596H34.9814L34.9814 13.0002L41 18.8596Z" fill="white"/>
<path fill-rule="evenodd" clip-rule="evenodd" d="M28.9629 24.7189H34.9814L28.9629 18.8596L28.9629 18.8596L34.9814 24.7189V40.1876C34.9814 41.7408 33.688 43 32.0926 43H17.8889C16.2934 43 15 41.7408 15 40.1876V21.6721C15 20.1188 16.2934 18.8596 17.8889 18.8596L28.9629 18.8596V24.7189ZM31.4907 28.3515C31.4907 27.769 31.0057 27.2968 30.4073 27.2968H19.8148L19.7638 27.2979C19.1891 27.3239 18.7314 27.7856 18.7314 28.3515C18.7314 28.934 19.2165 29.4062 19.8148 29.4062H30.4073L30.4583 29.405C31.033 29.3791 31.4907 28.9173 31.4907 28.3515ZM25.1111 32.6876C25.7094 32.6876 26.1944 33.1598 26.1944 33.7423C26.1944 34.3081 25.7367 34.7699 25.1621 34.7958L25.1111 34.797H19.8148C19.2165 34.797 18.7314 34.3248 18.7314 33.7423C18.7314 33.1764 19.1891 32.7147 19.7638 32.6887L19.8148 32.6876H25.1111Z" fill="white"/>
<path opacity="0.5" fill-rule="evenodd" clip-rule="evenodd" d="M38.1111 37.1404C39.7066 37.1404 41 35.8812 41 34.3279V18.8593L34.9815 13H23.9074C22.312 13 21.0186 14.2592 21.0186 15.8125V26.1249H32.5741V37.1404H38.1111ZM28.9629 24.7185H34.9814L28.9629 18.8592V24.7185Z" fill="white"/>
</svg>
