<svg width="56" height="56" viewBox="0 0 56 56" fill="none" xmlns="http://www.w3.org/2000/svg">
<circle cx="28" cy="28" r="28" fill="#79F2C0"/>
<path opacity="0.5" fill-rule="evenodd" clip-rule="evenodd" d="M43.9994 21.6166C43.9634 19.7293 42.4222 18.2104 40.5263 18.2104H28.1053L28.0607 18.2115C27.5582 18.2348 27.1579 18.6495 27.1579 19.1578C27.1579 19.681 27.582 20.1052 28.1053 20.1052H40.5263L40.5774 20.106C41.4258 20.133 42.1053 20.8292 42.1053 21.6841V25.2631L42.1045 25.3142C42.0775 26.1626 41.3812 26.842 40.5263 26.842H38.8421V25.8948C38.8421 25.1971 38.2766 24.6316 37.579 24.6316H18.4211C17.7234 24.6316 17.1579 25.1971 17.1579 25.8948V26.842H15.4737L15.4061 26.8427C13.5188 26.8787 12 28.4198 12 30.3157V33.8947L12.0006 33.9622C12.0366 35.8495 13.5778 37.3683 15.4737 37.3683H28L28.0446 37.3673C28.5471 37.344 28.9474 36.9292 28.9474 36.421C28.9474 35.8978 28.5232 35.4736 28 35.4736H15.4737L15.4226 35.4728C14.5742 35.4458 13.8947 34.7496 13.8947 33.8947V30.3157L13.8955 30.2646C13.9225 29.4162 14.6188 28.7368 15.4737 28.7368H17.1579V29.6842C17.1579 30.3819 17.7234 30.9474 18.4211 30.9474H37.579C38.2766 30.9474 38.8421 30.3819 38.8421 29.6842V28.7368H40.5263L40.5939 28.7361C42.4812 28.7001 44 27.159 44 25.2631V21.6841L43.9994 21.6166Z" fill="#091E42"/>
<path fill-rule="evenodd" clip-rule="evenodd" d="M37.5788 33.2632C38.2764 33.2632 38.8419 33.8287 38.8419 34.5263V38.3158C38.8419 39.0134 38.2764 39.579 37.5788 39.579H18.4209C17.7232 39.579 17.1577 39.0134 17.1577 38.3158V34.5263C17.1577 33.8287 17.7233 33.2632 18.4209 33.2632H37.5788Z" fill="#091E42"/>
<path fill-rule="evenodd" clip-rule="evenodd" d="M37.5788 16C38.2764 16 38.8419 16.5655 38.8419 17.2632V21.0526C38.8419 21.7503 38.2764 22.3158 37.5788 22.3158H18.4209C17.7232 22.3158 17.1577 21.7503 17.1577 21.0526V17.2632C17.1577 16.5655 17.7233 16 18.4209 16H37.5788Z" fill="#091E42"/>
</svg>
